<svg xmlns="http://www.w3.org/2000/svg" width="225.076" height="26.131" viewBox="0 0 225.076 26.131"><g transform="translate(3704.172 629.48)"><g transform="translate(-3704.172 -629.48)"><path d="M-42.32,1h20.344l-4.852,18.095H-47.172Z" transform="translate(47.172 -0.69)" fill="#fff"/><path d="M.288-5.955H2.674l1.89-7.034L6.3-8.4h.062l4.245-4.632-1.89,7.08h2.417L14.045-16.8H11.288L7.244-12.214,5.679-16.8H3.2Z" transform="translate(5.173 20.467)" fill="#0f4c75" opacity="0.11"/><path d="M-3.987-5.707H-1.7L.527-13.992H3.689L4.253-16.1H-4.358l-.564,2.108H-1.76Z" transform="translate(13.789 19.615)" fill="#0f4c75"/><path d="M-150.2-10.1h3.976l3.15-11.723,2.892,7.643h.1L-133-21.9l-3.15,11.8h4.028l4.854-18.075h-4.6l-6.739,7.643-2.608-7.643h-4.131Zm27.964,0h3.976l1.833-6.765,9.889-11.31h-4.8l-6.2,7.488-2.117-7.488h-4.415l3.744,10.948Zm27.267,0h3.976L-87.119-24.5h5.5l.981-3.667H-95.614L-96.6-24.5h5.5Zm13.711,0h3.976l1.549-5.784h2.969l2.789,5.784h4.519l-3.073-6.171A8.067,8.067,0,0,0-64.165-18.6a6,6,0,0,0,1.472-4.118,4.924,4.924,0,0,0-1.394-3.641A5.641,5.641,0,0,0-66.4-27.718a11.287,11.287,0,0,0-3.421-.452H-76.4Zm6.481-9.321,1.394-5.164h3.331a3.688,3.688,0,0,1,2.634.745A1.944,1.944,0,0,1-66.85-22.4a2.449,2.449,0,0,1-.336,1.3,2.815,2.815,0,0,1-.93.925,4.655,4.655,0,0,1-1.394.565,7.382,7.382,0,0,1-1.73.193ZM-62.77-10.1h4.286l2.737-4.054H-48.1l.568,4.054h4.08l-2.866-18.2h-3.821Zm9.4-7.591,3.976-5.965.826,5.965ZM-39.557-10.1h3.976l4.854-18.075H-34.7Zm9.993,0h3.925l3.176-11.852L-16.99-10.1h3.383L-8.753-28.17h-3.925l-3.1,11.49-5.267-11.49H-24.71Zm21.974,0h3.976L1.24-28.17H-2.736Zm9.993,0H6.327L9.5-21.947,14.977-10.1h3.383L23.214-28.17H19.289l-3.1,11.49L10.923-28.17H7.256Zm31.656.31a12.6,12.6,0,0,0,3.628-.478,14.674,14.674,0,0,0,2.931-1.226L43.173-20.5h-7.85l-.93,3.434h4l-.852,2.944a7.792,7.792,0,0,1-1.381.491,7.327,7.327,0,0,1-1.846.207,5.561,5.561,0,0,1-1.795-.284,4.405,4.405,0,0,1-1.472-.826,3.775,3.775,0,0,1-.994-1.356,4.569,4.569,0,0,1-.361-1.872,6.982,6.982,0,0,1,.529-2.7,7.294,7.294,0,0,1,1.446-2.246,7.025,7.025,0,0,1,2.169-1.549,6.333,6.333,0,0,1,2.7-.581,5.9,5.9,0,0,1,2.827.607,7.218,7.218,0,0,1,1.924,1.485l2.944-2.608a7.067,7.067,0,0,0-1.149-1.188,7.434,7.434,0,0,0-1.588-.994,9.855,9.855,0,0,0-2.066-.684,11.925,11.925,0,0,0-2.582-.258,11.15,11.15,0,0,0-4.519.9,11.289,11.289,0,0,0-3.556,2.414,11.292,11.292,0,0,0-2.337,3.46,10.1,10.1,0,0,0-.847,4.067,7.72,7.72,0,0,0,.744,3.5,7.346,7.346,0,0,0,1.937,2.453,7.945,7.945,0,0,0,2.716,1.433A10.469,10.469,0,0,0,34.058-9.786Z" transform="translate(180.844 28.48)" fill="#fff"/></g><path d="M-23.5-2.5h.994l.968-3.6h1.375l.245-.917h-3.744l-.245.917h1.375Zm3.428,0h.994l.387-1.446h.742l.7,1.446h1.13l-.768-1.543A2.017,2.017,0,0,0-15.8-4.626a1.5,1.5,0,0,0,.368-1.03,1.231,1.231,0,0,0-.349-.91,1.41,1.41,0,0,0-.578-.339,2.822,2.822,0,0,0-.855-.113h-1.646Zm1.62-2.33.349-1.291h.833a.922.922,0,0,1,.658.186.486.486,0,0,1,.142.36.612.612,0,0,1-.084.324.7.7,0,0,1-.232.231,1.164,1.164,0,0,1-.349.141,1.846,1.846,0,0,1-.433.048Zm3,2.33h1.072l.684-1.013h1.911l.142,1.013h1.02l-.717-4.551H-12.3Zm2.35-1.9.994-1.491L-11.9-4.4ZM-9.65-2.5h.994l1.214-4.519h-.994Zm2.5,0h.981l.794-2.963L-4.008-2.5h.846l1.214-4.519H-2.93l-.775,2.873L-5.022-7.018h-.917Zm5.448,0H1.7l.239-.884H-.484l.258-.955h2.1l.239-.871H.013l.245-.923H2.647l.239-.884H-.49Zm4.667,0h.994l.387-1.446h.742l.7,1.446h1.13L6.146-4.042a2.017,2.017,0,0,0,1.091-.584A1.5,1.5,0,0,0,7.6-5.656a1.231,1.231,0,0,0-.349-.91A1.41,1.41,0,0,0,6.678-6.9a2.822,2.822,0,0,0-.855-.113H4.177Zm1.62-2.33L4.932-6.12h.833a.922.922,0,0,1,.658.186.486.486,0,0,1,.142.36.612.612,0,0,1-.084.324.7.7,0,0,1-.232.231,1.164,1.164,0,0,1-.349.141,1.846,1.846,0,0,1-.433.048Z" transform="translate(-3490.309 -600.85)" fill="#fff"/></g></svg>