<svg xmlns="http://www.w3.org/2000/svg" width="246.303" height="126.853" viewBox="0 0 246.303 126.853"><g transform="translate(-64.804 -109.018)"><path d="M-151.26-5.345h7.448l3.025-11.286,3.057,8.1h.13l7.415-8.1-3.025,11.286h7.578l6.114-22.767h-8.359l-7.025,8-2.732-8h-7.513Zm36,0h7.611l2.082-7.741L-92.62-28.112h-9.009l-5.919,7.611-1.854-7.611h-8l4.456,14.083Zm34.735,0h7.611l4.391-16.327h6.7l1.724-6.44h-21.01l-1.724,6.44h6.7Zm17.856,0h7.611l1.756-6.5h1.886l2.537,6.5h8.2l-3.155-7.578c4.488-1.4,6.342-4.456,6.342-8a6.519,6.519,0,0,0-1.789-4.748c-1.529-1.529-4.2-2.439-8.391-2.439h-8.879Zm10.8-11.936,1.2-4.456h2.7a3.133,3.133,0,0,1,2.244.65,1.67,1.67,0,0,1,.488,1.2c0,1.431-1.333,2.6-3.87,2.6ZM-39.378-5.345h8.294L-29.1-8.4h7.968l.39,3.057h8.1l-3.448-22.929h-7.546Zm13.66-8.456,3.545-5.529.618,5.529Zm15.579,8.456h7.611L3.586-28.112H-4.025Zm12.034,0H9.44L12.5-16.664,17.9-5.345h6.765l6.114-22.767H23.23L20.3-17.249,15.132-28.112H8.009Zm27.19,0H36.7L42.81-28.112H35.2Zm12.034,0h7.546l3.057-11.318,5.4,11.318h6.765L70-28.112H62.454L59.527-17.249,54.356-28.112H47.233Zm40.622.488A17.8,17.8,0,0,0,90.49-7.2L93.742-18.81H82.781l-1.236,4.879h3.74l-.748,2.439a4.919,4.919,0,0,1-1.984.358c-2.374,0-4.423-1.4-4.423-4.228,0-3.675,2.569-6.635,6.9-6.635a7.967,7.967,0,0,1,5.269,2.049l4.748-4.879c-1.561-1.919-5.236-3.773-9.529-3.773-9.172,0-15.026,6.147-15.026,13.595C70.487-7.85,76.082-4.858,81.741-4.858Z" transform="translate(216.064 240.729)" fill="#0f4c75"/><path d="M-25.191,1H66.981L45,82.982H-47.172Z" transform="translate(177.591 108.018)" fill="#0f4c75"/><path d="M.264,29.64h9.909L18.022.428l7.206,19.045h.257L43.116.235l-7.85,29.4H45.3L57.4-15.4H45.947L29.154,3.645,22.655-15.4H12.36Z" transform="translate(157.752 140.796)" fill="#fff" opacity="0.11"/><path d="M-.654,29.64H9.254l9.651-35.9h13.7L35.056-15.4H-2.263L-4.708-6.263H9Z" transform="translate(177.476 140.837)" fill="#fff"/></g></svg>